HIERARCHY
ROOT Pelvis
{
	OFFSET 0.000000 0.000000 0.000000
	CHANNELS 6 Xposition Yposition Zposition Xrotation Yrotation Zrotation
	JOINT LeftUpLeg_virtual
	{
		OFFSET 0.000000 0.000000 0.000000
		CHANNELS 3 Xrotation Yrotation Zrotation
		JOINT LeftUpLeg
		{
			OFFSET 18.735201 -5.666702 -4.541200
			CHANNELS 3 Xrotation Yrotation Zrotation
			JOINT LeftLeg
			{
				OFFSET -0.021200 -31.938179 0.493100
				CHANNELS 3 Xrotation Yrotation Zrotation
				JOINT LeftFoot
				{
					OFFSET 0.021200 -31.938179 -4.336299
					CHANNELS 3 Xrotation Yrotation Zrotation
					JOINT LeftToeBase
					{
						OFFSET 0.943001 -26.722000 15.023500
						CHANNELS 3 Xrotation Yrotation Zrotation
						End Site
						{
							OFFSET 0 0 0
						}
					}
				}
			}
		}
	}
	JOINT RightUpLeg_virtual
	{
		OFFSET 0.000000 0.000000 0.000000
		CHANNELS 3 Xrotation Yrotation Zrotation
		JOINT RightUpLeg
		{
			OFFSET -18.735201 -5.666702 -4.541200
			CHANNELS 3 Xrotation Yrotation Zrotation
			JOINT RightLeg
			{
				OFFSET 0.018946 -31.938133 0.493100
				CHANNELS 3 Xrotation Yrotation Zrotation
				JOINT RightFoot
				{
					OFFSET -0.018946 -31.938126 -4.336299
					CHANNELS 3 Xrotation Yrotation Zrotation
					JOINT RightToeBase
					{
						OFFSET -0.943001 -26.722004 15.023500
						CHANNELS 3 Xrotation Yrotation Zrotation
						End Site
						{
							OFFSET 0 0 0
						}
					}
				}
			}
		}
	}
	JOINT Hips_virtual
	{
		OFFSET 0.000000 0.000000 0.000000
		CHANNELS 3 Xrotation Yrotation Zrotation
		JOINT Hips
		{
			OFFSET -0.000000 -0.000000 -0.000000
			CHANNELS 3 Xrotation Yrotation Zrotation
			JOINT Spine
			{
				OFFSET 0.000000 10.199997 -0.299500
				CHANNELS 3 Xrotation Yrotation Zrotation
				JOINT Spine1
				{
					OFFSET 0.000000 11.900002 -1.516600
					CHANNELS 3 Xrotation Yrotation Zrotation
					JOINT Spine2
					{
						OFFSET 0.000000 13.600006 -2.842500
						CHANNELS 3 Xrotation Yrotation Zrotation
						JOINT Neck_virtual
						{
							OFFSET 0.000000 0.000000 0.000000
							CHANNELS 3 Xrotation Yrotation Zrotation
							JOINT Neck
							{
								OFFSET 0.000000 9.624100 -2.890100
								CHANNELS 3 Xrotation Yrotation Zrotation
								JOINT Head
								{
									OFFSET 0.000000 14.068802 -1.351900
									CHANNELS 3 Xrotation Yrotation Zrotation
									End Site
									{
										OFFSET 0 0 0
									}
								}
							}
						}
						JOINT LeftShoulder_virtual
						{
							OFFSET 0.000000 0.000000 0.000000
							CHANNELS 3 Xrotation Yrotation Zrotation
							JOINT LeftShoulder
							{
								OFFSET 15.263000 10.923401 -0.547700
								CHANNELS 3 Xrotation Yrotation Zrotation
								JOINT LeftArm
								{
									OFFSET 25.438599 -2.830597 -13.032500
									CHANNELS 3 Xrotation Yrotation Zrotation
									JOINT LeftForeArm
									{
										OFFSET 29.960503 0.000000 0.000000
										CHANNELS 3 Xrotation Yrotation Zrotation
										JOINT LeftHand
										{
											OFFSET 27.849251 0.000000 0.000000
											CHANNELS 3 Xrotation Yrotation Zrotation
											End Site
											{
												OFFSET 0 0 0
											}
										}
									}
								}
							}
						}
						JOINT RightShoulder_virtual
						{
							OFFSET 0.000000 0.000000 0.000000
							CHANNELS 3 Xrotation Yrotation Zrotation
							JOINT RightShoulder
							{
								OFFSET -15.263000 10.923401 -0.547700
								CHANNELS 3 Xrotation Yrotation Zrotation
								JOINT RightArm
								{
									OFFSET -25.438599 -2.830597 -13.032500
									CHANNELS 3 Xrotation Yrotation Zrotation
									JOINT RightForeArm
									{
										OFFSET -29.960503 0.000000 0.000000
										CHANNELS 3 Xrotation Yrotation Zrotation
										JOINT RightHand
										{
											OFFSET -27.849251 0.000000 0.000000
											CHANNELS 3 Xrotation Yrotation Zrotation
											End Site
											{
												OFFSET 0 0 0
											}
										}
									}
								}
							}
						}
					}
				}
			}
		}
	}
}
MOTION
Frames: 11
Frame Time: 0.03333333
-4.161081 89.139381 3.619354 0.000000 0.000000 0.000000 2.465548 27.954748 0.864966 -39.070994 -23.173037 -0.106939 31.695578 15.094692 -8.532545 5.856755 -3.208942 -6.040526 0.000000 0.000000 0.000000 2.465548 27.954748 0.864966 8.204638 -27.483554 -2.441242 24.949021 -8.763800 6.766037 -31.849493 -11.230599 2.032019 0.000000 0.000000 0.000000 2.465548 27.954748 0.864966 0.000000 -0.000001 0.000000 3.916144 4.675224 -1.851976 0.662380 3.033937 0.848257 0.000000 0.000000 0.000000 0.672732 3.142729 0.838939 -0.625660 2.006443 -1.242542 0.000000 0.000000 0.000000 0.672732 3.142729 0.838939 -0.170425 1.694771 -1.674852 -70.359179 1.043902 -26.985324 2.443058 -70.793258 3.754327 0.000000 0.000000 0.000000 0.672732 3.142729 0.838939 4.020289 15.450586 6.652469 13.125176 -8.190056 63.320805 15.659592 40.753529 -6.335587 0.000000 0.000000 0.000000 
-4.366320 89.278542 3.545856 0.000000 0.000000 0.000000 2.952939 25.155775 0.485529 -38.492743 -22.009371 1.507387 32.564081 15.556613 -8.673195 4.757984 -2.726001 -6.320014 0.000000 0.000000 0.000000 2.952939 25.155775 0.485529 6.104809 -25.429194 -3.153841 25.872651 -8.213155 6.679356 -31.537470 -10.887018 1.831870 0.000000 0.000000 0.000000 2.952939 25.155775 0.485529 0.000000 0.000001 0.000000 4.042608 4.507547 -1.838807 0.745713 2.934837 0.846919 0.000000 0.000000 0.000000 0.756891 3.044797 0.839888 -0.747349 1.488618 -1.121933 0.000000 0.000000 0.000000 0.756891 3.044797 0.839888 -0.084040 0.806778 -1.884200 -70.540288 1.291848 -27.179163 2.895035 -73.071044 3.786724 0.000000 0.000000 0.000000 0.756891 3.044797 0.839888 4.018017 15.343492 6.386903 12.582812 -8.065741 63.241855 15.851390 41.731971 -6.506789 0.000000 0.000000 0.000000 
-4.565968 89.407829 3.432762 0.000000 0.000000 0.000000 3.555860 22.200802 0.099360 -38.057155 -21.393278 2.949318 33.472066 16.406487 -8.839247 3.684816 -1.953404 -6.776061 0.000000 0.000000 0.000000 3.555860 22.200802 0.099360 3.785448 -23.242570 -3.844462 26.880382 -7.669531 6.633733 -31.150686 -10.540447 1.638153 0.000000 0.000000 0.000000 3.555860 22.200802 0.099360 0.000000 0.000000 0.000000 4.139660 4.275350 -1.851992 0.813766 2.798223 0.871274 0.000000 0.000000 0.000000 0.822901 2.911497 0.866819 -0.925028 1.091610 -1.038540 0.000000 0.000000 0.000000 0.822901 2.911497 0.866819 0.049266 0.112973 -1.841731 -70.965392 1.555737 -28.323616 3.446513 -75.023440 3.823254 0.000000 0.000000 0.000000 0.822901 2.911497 0.866819 4.069649 15.320680 6.024855 12.145407 -7.778643 63.262510 16.010674 42.685353 -6.730032 0.000000 0.000000 0.000000 
-4.768788 89.543579 3.284523 0.000000 0.000000 0.000000 4.250642 19.035508 -0.278956 -37.636347 -21.129626 4.287201 34.467645 17.652308 -8.974263 2.541209 -0.851716 -7.462676 0.000000 0.000000 0.000000 4.250642 19.035508 -0.278956 1.326159 -20.946867 -4.468697 27.805442 -7.080338 6.601492 -30.581731 -10.170384 1.515659 0.000000 0.000000 0.000000 4.250642 19.035508 -0.278956 0.000000 0.000001 0.000000 4.206311 4.079657 -1.852621 0.895980 2.686891 0.916957 0.000000 0.000000 0.000000 0.902539 2.804680 0.916454 -1.190729 0.695688 -0.991522 0.000000 0.000000 0.000000 0.902539 2.804680 0.916454 -0.033589 -0.456568 -1.544512 -71.151310 1.754730 -30.563881 3.947390 -76.397401 4.010112 0.000000 0.000000 0.000000 0.902539 2.804680 0.916454 4.107272 15.021811 5.670997 11.924080 -7.209786 63.117314 16.375242 43.773668 -6.874433 0.000000 0.000000 0.000000 
-4.962379 89.702545 3.120953 0.000000 0.000000 0.000000 4.980226 15.583462 -0.634751 -37.153524 -20.715942 5.735271 35.569672 18.993890 -9.130894 1.375459 0.362623 -8.217198 0.000000 0.000000 0.000000 4.980226 15.583462 -0.634751 -1.230306 -18.615964 -4.905686 28.594732 -6.332698 6.428953 -29.810688 -9.687256 1.320394 0.000000 0.000000 0.000000 4.980226 15.583462 -0.634751 0.000000 -0.000001 0.000000 4.306617 3.844410 -1.876958 0.966077 2.550130 0.971379 0.000000 0.000000 0.000000 0.969178 2.673408 0.972873 -1.543359 0.150921 -0.887331 0.000000 0.000000 0.000000 0.969178 2.673408 0.972873 -0.015766 -0.910674 -1.245243 -71.114004 1.752292 -32.948061 4.570725 -77.720996 4.244585 0.000000 0.000000 0.000000 0.969178 2.673408 0.972873 4.169830 14.682240 5.352213 11.719934 -6.389686 62.862479 16.656630 44.636109 -6.992394 0.000000 0.000000 0.000000 
-5.146974 89.874962 2.958580 0.000000 0.000000 0.000000 5.690316 11.789103 -0.952224 -36.526397 -20.101846 7.328518 36.809259 20.375134 -9.319242 0.085477 1.658249 -9.042136 0.000000 0.000000 0.000000 5.690316 11.789103 -0.952224 -3.821673 -16.244358 -5.166998 29.237315 -5.443977 6.106725 -28.766178 -9.159616 1.227078 0.000000 0.000000 0.000000 5.690316 11.789103 -0.952224 0.000000 0.000001 0.000000 4.378372 3.585113 -1.855932 1.078601 2.380404 0.982561 0.000000 0.000000 0.000000 1.082128 2.506128 0.989467 -1.957428 -0.617437 -0.707767 0.000000 0.000000 0.000000 1.082128 2.506128 0.989467 0.050821 -1.617019 -1.107899 -70.898873 1.313844 -34.708825 5.127642 -78.615450 4.478147 0.000000 0.000000 0.000000 1.082128 2.506128 0.989467 4.204818 14.386291 5.064109 11.404999 -5.538673 62.463446 16.901551 45.248586 -6.999886 0.000000 0.000000 0.000000 
-5.319931 90.044617 2.805473 0.000000 0.000000 0.000000 6.348532 7.666553 -1.204936 -35.746960 -19.215071 9.050593 38.165912 21.712803 -9.537826 -1.318854 2.968110 -9.911963 0.000000 0.000000 0.000000 6.348532 7.666553 -1.204936 -6.442253 -13.676777 -5.535488 29.798411 -4.365769 6.025698 -27.341032 -8.563548 1.442456 0.000000 0.000000 0.000000 6.348532 7.666553 -1.204936 0.000000 0.000000 0.000000 4.443530 3.286453 -1.821967 1.141648 2.172359 0.959688 0.000000 0.000000 0.000000 1.147681 2.297728 0.970189 -2.305920 -1.588591 -0.433111 0.000000 0.000000 0.000000 1.147681 2.297728 0.970189 0.095522 -2.679217 -1.076289 -70.594499 0.546603 -35.680761 5.305781 -78.635872 4.433942 0.000000 0.000000 0.000000 1.147681 2.297728 0.970189 4.210771 14.259133 4.752732 11.010336 -4.890329 62.097963 17.027928 45.597465 -6.966696 0.000000 0.000000 0.000000 
-5.458109 90.198929 2.656620 0.000000 0.000000 0.000000 6.934629 3.284119 -1.325205 -34.818737 -17.976146 10.798481 39.505418 22.932114 -9.760020 -2.770593 4.222520 -10.787871 0.000000 0.000000 0.000000 6.934629 3.284119 -1.325205 -9.092865 -11.233769 -5.755413 30.338133 -3.106043 5.742418 -25.831542 -7.887453 1.654880 0.000000 0.000000 0.000000 6.934629 3.284119 -1.325205 0.000000 0.000000 0.000000 4.494097 2.900691 -1.812176 1.273254 1.897093 0.915533 0.000000 0.000000 0.000000 1.281598 2.022265 0.932667 -2.668696 -2.657705 -0.086174 0.000000 0.000000 0.000000 1.281598 2.022265 0.932667 0.108088 -3.452479 -1.235002 -70.751532 -0.500434 -36.415140 4.970393 -77.434565 3.839830 0.000000 0.000000 0.000000 1.281598 2.022265 0.932667 4.296890 14.099432 4.422451 10.149528 -4.186269 61.594762 17.063325 45.580550 -6.796710 0.000000 0.000000 0.000000 
-5.539691 90.321815 2.509296 0.000000 0.000000 0.000000 7.447476 -1.320830 -1.257915 -33.800298 -16.006287 12.589181 40.669538 23.760259 -9.960677 -4.263407 5.198702 -11.501289 0.000000 0.000000 0.000000 7.447476 -1.320830 -1.257915 -11.833444 -8.898027 -5.995885 30.964055 -1.583051 5.322192 -24.228774 -7.124985 2.074369 0.000000 0.000000 0.000000 7.447476 -1.320830 -1.257915 0.000001 0.000000 0.000000 4.617172 2.635788 -1.758630 1.330219 1.684721 0.813367 0.000000 0.000000 0.000000 1.344296 1.802799 0.832766 -2.903486 -3.677026 0.249758 0.000000 0.000000 0.000000 1.344296 1.802799 0.832766 0.283249 -4.630724 -1.243750 -70.924254 -1.062794 -37.183246 4.802712 -76.558272 3.436849 0.000000 0.000000 0.000000 1.344296 1.802799 0.832766 4.306503 13.445872 4.225294 9.240544 -3.406243 61.095209 16.967136 45.260412 -6.567515 0.000000 0.000000 0.000000 
-5.563153 90.417076 2.367111 0.000000 0.000000 0.000000 7.929125 -6.195942 -1.005641 -32.702089 -13.476980 14.335548 41.661179 24.373240 -10.130140 -5.801508 6.004691 -12.115145 0.000000 0.000000 0.000000 7.929125 -6.195942 -1.005641 -14.659679 -6.615858 -6.248998 31.617905 0.121219 4.888822 -22.543779 -6.250954 2.528838 0.000000 0.000000 0.000000 7.929125 -6.195942 -1.005641 0.000000 0.000000 0.000000 4.684507 2.322159 -1.710950 1.392130 1.444304 0.782925 0.000000 0.000000 0.000000 1.407960 1.560125 0.805362 -3.005356 -4.545636 0.518422 0.000000 0.000000 0.000000 1.407960 1.560125 0.805362 0.228001 -5.664249 -1.065775 -70.466269 -0.980089 -37.997459 4.796803 -76.225703 3.334228 0.000000 0.000000 0.000000 1.407960 1.560125 0.805362 4.358091 13.059859 4.059154 8.293875 -2.926371 60.522265 16.864813 44.881900 -6.368383 0.000000 0.000000 0.000000 
-5.554693 90.476402 2.213539 0.000000 0.000000 0.000000 8.458477 -11.354995 -0.576525 -31.624230 -10.434534 16.026499 42.645707 24.953454 -10.302978 -7.363924 6.820809 -12.776607 0.000000 0.000000 0.000000 8.458477 -11.354995 -0.576525 -17.652776 -4.304956 -6.442078 32.212210 2.060245 4.432458 -20.637546 -5.249692 3.175016 0.000000 0.000000 0.000000 8.458477 -11.354995 -0.576525 0.000001 0.000000 0.000000 4.833048 1.975382 -1.677101 1.468006 1.180169 0.766882 0.000000 0.000000 0.000000 1.484179 1.294134 0.790917 -3.123867 -5.284251 0.813425 0.000000 0.000000 0.000000 1.484179 1.294134 0.790917 0.272389 -6.067755 -0.937412 -69.992862 -0.884709 -38.593400 5.013866 -76.329686 3.241434 0.000000 0.000000 0.000000 1.484179 1.294134 0.790917 4.431321 12.520153 4.258221 7.145501 -2.290895 59.536730 16.782675 44.555499 -6.217964 0.000000 0.000000 0.000000 
